<mxfile host="app.diagrams.net" modified="2024-02-26T22:28:18.552Z" agent="Mozilla/5.0 (Macintosh; Intel Mac OS X 10_15_7) AppleWebKit/537.36 (KHTML, like Gecko) Chrome/122.0.0.0 Safari/537.36" etag="QNCgl3qiQPYb5p_TEhvu" scale="1" border="0" version="23.1.6" type="device">
  <diagram id="C5RBs43oDa-KdzZeNtuy" name="Page-1">
    <mxGraphModel dx="2885" dy="1725" grid="1" gridSize="10" guides="1" tooltips="1" connect="1" arrows="1" fold="1" page="1" pageScale="1" pageWidth="827" pageHeight="1169" math="0" shadow="0">
      <root>
        <mxCell id="WIyWlLk6GJQsqaUBKTNV-0" />
        <mxCell id="WIyWlLk6GJQsqaUBKTNV-1" parent="WIyWlLk6GJQsqaUBKTNV-0" />
        <mxCell id="cy5RryEcgWnBEIwlhZzS-3" value="" style="edgeStyle=orthogonalEdgeStyle;rounded=0;orthogonalLoop=1;jettySize=auto;html=1;" parent="WIyWlLk6GJQsqaUBKTNV-1" source="cy5RryEcgWnBEIwlhZzS-1" target="cy5RryEcgWnBEIwlhZzS-2" edge="1">
          <mxGeometry relative="1" as="geometry" />
        </mxCell>
        <mxCell id="cy5RryEcgWnBEIwlhZzS-1" value="myLottoNumbers = [2,3,8,21,38,44]&amp;nbsp;&lt;br&gt;lottoNumberByRound = [ :]" style="rounded=0;whiteSpace=wrap;html=1;" parent="WIyWlLk6GJQsqaUBKTNV-1" vertex="1">
          <mxGeometry x="180" y="110" width="240" height="60" as="geometry" />
        </mxCell>
        <mxCell id="cy5RryEcgWnBEIwlhZzS-8" value="" style="edgeStyle=orthogonalEdgeStyle;rounded=0;orthogonalLoop=1;jettySize=auto;html=1;" parent="WIyWlLk6GJQsqaUBKTNV-1" source="cy5RryEcgWnBEIwlhZzS-2" target="cy5RryEcgWnBEIwlhZzS-7" edge="1">
          <mxGeometry relative="1" as="geometry" />
        </mxCell>
        <mxCell id="cy5RryEcgWnBEIwlhZzS-2" value="lottoRangeNumbers = 1부터 45까지의 정수&lt;br&gt;randomNumber = lottoRangeNumbers에서 랜덤으로 뽑은 정수" style="whiteSpace=wrap;html=1;rounded=0;" parent="WIyWlLk6GJQsqaUBKTNV-1" vertex="1">
          <mxGeometry x="120" y="200" width="360" height="70" as="geometry" />
        </mxCell>
        <mxCell id="cy5RryEcgWnBEIwlhZzS-10" value="" style="edgeStyle=orthogonalEdgeStyle;rounded=0;orthogonalLoop=1;jettySize=auto;html=1;" parent="WIyWlLk6GJQsqaUBKTNV-1" source="cy5RryEcgWnBEIwlhZzS-7" target="cy5RryEcgWnBEIwlhZzS-9" edge="1">
          <mxGeometry relative="1" as="geometry" />
        </mxCell>
        <mxCell id="cy5RryEcgWnBEIwlhZzS-14" value="" style="edgeStyle=orthogonalEdgeStyle;rounded=0;orthogonalLoop=1;jettySize=auto;html=1;" parent="WIyWlLk6GJQsqaUBKTNV-1" source="cy5RryEcgWnBEIwlhZzS-7" target="cy5RryEcgWnBEIwlhZzS-13" edge="1">
          <mxGeometry relative="1" as="geometry" />
        </mxCell>
        <mxCell id="cy5RryEcgWnBEIwlhZzS-7" value="randomNumber가 빈 값인가?" style="rhombus;whiteSpace=wrap;html=1;rounded=0;" parent="WIyWlLk6GJQsqaUBKTNV-1" vertex="1">
          <mxGeometry x="185" y="300" width="230" height="80" as="geometry" />
        </mxCell>
        <mxCell id="cy5RryEcgWnBEIwlhZzS-12" style="edgeStyle=orthogonalEdgeStyle;rounded=0;orthogonalLoop=1;jettySize=auto;html=1;entryX=1;entryY=0.5;entryDx=0;entryDy=0;exitX=0.5;exitY=0;exitDx=0;exitDy=0;" parent="WIyWlLk6GJQsqaUBKTNV-1" source="cy5RryEcgWnBEIwlhZzS-9" target="cy5RryEcgWnBEIwlhZzS-2" edge="1">
          <mxGeometry relative="1" as="geometry">
            <Array as="points">
              <mxPoint x="575" y="235" />
            </Array>
          </mxGeometry>
        </mxCell>
        <mxCell id="cy5RryEcgWnBEIwlhZzS-9" value="lottoRangeNumbers에 &lt;br&gt;1부터 45까지의 정수를&lt;br&gt;다시 초기화" style="whiteSpace=wrap;html=1;rounded=0;" parent="WIyWlLk6GJQsqaUBKTNV-1" vertex="1">
          <mxGeometry x="500" y="310" width="150" height="60" as="geometry" />
        </mxCell>
        <mxCell id="cy5RryEcgWnBEIwlhZzS-16" value="" style="edgeStyle=orthogonalEdgeStyle;rounded=0;orthogonalLoop=1;jettySize=auto;html=1;" parent="WIyWlLk6GJQsqaUBKTNV-1" source="cy5RryEcgWnBEIwlhZzS-13" target="cy5RryEcgWnBEIwlhZzS-15" edge="1">
          <mxGeometry relative="1" as="geometry" />
        </mxCell>
        <mxCell id="cy5RryEcgWnBEIwlhZzS-13" value="lottoNumbers에 randomNumber 값 추가" style="whiteSpace=wrap;html=1;rounded=0;" parent="WIyWlLk6GJQsqaUBKTNV-1" vertex="1">
          <mxGeometry x="130" y="430" width="340" height="70" as="geometry" />
        </mxCell>
        <mxCell id="cy5RryEcgWnBEIwlhZzS-18" value="" style="edgeStyle=orthogonalEdgeStyle;rounded=0;orthogonalLoop=1;jettySize=auto;html=1;" parent="WIyWlLk6GJQsqaUBKTNV-1" source="cy5RryEcgWnBEIwlhZzS-15" target="cy5RryEcgWnBEIwlhZzS-17" edge="1">
          <mxGeometry relative="1" as="geometry" />
        </mxCell>
        <mxCell id="cy5RryEcgWnBEIwlhZzS-15" value="lottoRangeNumbers에서 randomNumber 값 빼기" style="rounded=0;whiteSpace=wrap;html=1;" parent="WIyWlLk6GJQsqaUBKTNV-1" vertex="1">
          <mxGeometry x="130" y="540" width="340" height="60" as="geometry" />
        </mxCell>
        <mxCell id="cy5RryEcgWnBEIwlhZzS-19" style="edgeStyle=orthogonalEdgeStyle;rounded=0;orthogonalLoop=1;jettySize=auto;html=1;entryX=0;entryY=0.5;entryDx=0;entryDy=0;" parent="WIyWlLk6GJQsqaUBKTNV-1" source="cy5RryEcgWnBEIwlhZzS-17" target="cy5RryEcgWnBEIwlhZzS-7" edge="1">
          <mxGeometry relative="1" as="geometry">
            <Array as="points">
              <mxPoint x="90" y="685" />
              <mxPoint x="90" y="340" />
            </Array>
          </mxGeometry>
        </mxCell>
        <mxCell id="cy5RryEcgWnBEIwlhZzS-47" style="edgeStyle=orthogonalEdgeStyle;rounded=0;orthogonalLoop=1;jettySize=auto;html=1;entryX=0.5;entryY=0;entryDx=0;entryDy=0;" parent="WIyWlLk6GJQsqaUBKTNV-1" source="cy5RryEcgWnBEIwlhZzS-17" target="cy5RryEcgWnBEIwlhZzS-34" edge="1">
          <mxGeometry relative="1" as="geometry" />
        </mxCell>
        <mxCell id="cy5RryEcgWnBEIwlhZzS-17" value="lottoNumbers의 값이 6개인가?" style="rhombus;whiteSpace=wrap;html=1;rounded=0;" parent="WIyWlLk6GJQsqaUBKTNV-1" vertex="1">
          <mxGeometry x="185" y="645" width="230" height="80" as="geometry" />
        </mxCell>
        <mxCell id="zWLNQniWtnpa3IEKKXRj-1" value="" style="edgeStyle=orthogonalEdgeStyle;rounded=0;orthogonalLoop=1;jettySize=auto;html=1;" edge="1" parent="WIyWlLk6GJQsqaUBKTNV-1" source="cy5RryEcgWnBEIwlhZzS-34" target="zWLNQniWtnpa3IEKKXRj-0">
          <mxGeometry relative="1" as="geometry" />
        </mxCell>
        <mxCell id="cy5RryEcgWnBEIwlhZzS-34" value="&lt;div style=&quot;&quot;&gt;lottoNumbursByRound에&amp;nbsp;&lt;/div&gt;&lt;div style=&quot;&quot;&gt;&quot;\(round&lt;span style=&quot;background-color: initial;&quot;&gt;)회차&quot;를 key값으로 lottoNumbers 값 추가&lt;/span&gt;&lt;/div&gt;" style="rounded=0;whiteSpace=wrap;html=1;align=center;" parent="WIyWlLk6GJQsqaUBKTNV-1" vertex="1">
          <mxGeometry x="130" y="780" width="340" height="60" as="geometry" />
        </mxCell>
        <mxCell id="cy5RryEcgWnBEIwlhZzS-36" value="" style="edgeStyle=orthogonalEdgeStyle;rounded=0;orthogonalLoop=1;jettySize=auto;html=1;" parent="WIyWlLk6GJQsqaUBKTNV-1" source="cy5RryEcgWnBEIwlhZzS-37" target="cy5RryEcgWnBEIwlhZzS-40" edge="1">
          <mxGeometry relative="1" as="geometry" />
        </mxCell>
        <mxCell id="cy5RryEcgWnBEIwlhZzS-37" value="overLapNum : lottonMun과 myNum의 중복 값" style="whiteSpace=wrap;html=1;rounded=0;" parent="WIyWlLk6GJQsqaUBKTNV-1" vertex="1">
          <mxGeometry x="139.5" y="960" width="321" height="60" as="geometry" />
        </mxCell>
        <mxCell id="cy5RryEcgWnBEIwlhZzS-38" value="" style="edgeStyle=orthogonalEdgeStyle;rounded=0;orthogonalLoop=1;jettySize=auto;html=1;" parent="WIyWlLk6GJQsqaUBKTNV-1" source="cy5RryEcgWnBEIwlhZzS-40" target="cy5RryEcgWnBEIwlhZzS-42" edge="1">
          <mxGeometry relative="1" as="geometry" />
        </mxCell>
        <mxCell id="cy5RryEcgWnBEIwlhZzS-39" value="" style="edgeStyle=orthogonalEdgeStyle;rounded=0;orthogonalLoop=1;jettySize=auto;html=1;" parent="WIyWlLk6GJQsqaUBKTNV-1" source="cy5RryEcgWnBEIwlhZzS-40" target="cy5RryEcgWnBEIwlhZzS-44" edge="1">
          <mxGeometry relative="1" as="geometry" />
        </mxCell>
        <mxCell id="cy5RryEcgWnBEIwlhZzS-40" value="overLapNum의 멤버 개수가 0이 아닌가?" style="rhombus;whiteSpace=wrap;html=1;rounded=0;" parent="WIyWlLk6GJQsqaUBKTNV-1" vertex="1">
          <mxGeometry x="150" y="1045" width="300" height="80" as="geometry" />
        </mxCell>
        <mxCell id="cy5RryEcgWnBEIwlhZzS-41" style="edgeStyle=orthogonalEdgeStyle;rounded=0;orthogonalLoop=1;jettySize=auto;html=1;entryX=0.5;entryY=0;entryDx=0;entryDy=0;" parent="WIyWlLk6GJQsqaUBKTNV-1" source="cy5RryEcgWnBEIwlhZzS-42" target="zWLNQniWtnpa3IEKKXRj-3" edge="1">
          <mxGeometry relative="1" as="geometry">
            <mxPoint x="300" y="1325" as="targetPoint" />
          </mxGeometry>
        </mxCell>
        <mxCell id="cy5RryEcgWnBEIwlhZzS-42" value="&quot;축하합니다! 겹치는 번호는 &lt;br&gt;[ overLapNum을 오름차순으로 정렬한 값 ]&amp;nbsp;입니다!&quot; 반환" style="rounded=0;whiteSpace=wrap;html=1;" parent="WIyWlLk6GJQsqaUBKTNV-1" vertex="1">
          <mxGeometry x="40" y="1195" width="290" height="60" as="geometry" />
        </mxCell>
        <mxCell id="zWLNQniWtnpa3IEKKXRj-4" value="" style="edgeStyle=orthogonalEdgeStyle;rounded=0;orthogonalLoop=1;jettySize=auto;html=1;" edge="1" parent="WIyWlLk6GJQsqaUBKTNV-1" source="cy5RryEcgWnBEIwlhZzS-44" target="zWLNQniWtnpa3IEKKXRj-3">
          <mxGeometry relative="1" as="geometry" />
        </mxCell>
        <mxCell id="cy5RryEcgWnBEIwlhZzS-44" value="&quot;아쉽지만 겹치는 번호가 &lt;br&gt;없습니다.&quot; 반환" style="rounded=0;whiteSpace=wrap;html=1;" parent="WIyWlLk6GJQsqaUBKTNV-1" vertex="1">
          <mxGeometry x="340" y="1195" width="150" height="60" as="geometry" />
        </mxCell>
        <mxCell id="cy5RryEcgWnBEIwlhZzS-45" value="YES" style="text;html=1;align=center;verticalAlign=middle;whiteSpace=wrap;rounded=0;" parent="WIyWlLk6GJQsqaUBKTNV-1" vertex="1">
          <mxGeometry x="210" y="1135" width="60" height="30" as="geometry" />
        </mxCell>
        <mxCell id="cy5RryEcgWnBEIwlhZzS-46" value="NO" style="text;html=1;align=center;verticalAlign=middle;whiteSpace=wrap;rounded=0;" parent="WIyWlLk6GJQsqaUBKTNV-1" vertex="1">
          <mxGeometry x="334" y="1135" width="60" height="30" as="geometry" />
        </mxCell>
        <mxCell id="cy5RryEcgWnBEIwlhZzS-48" value="YES" style="text;html=1;align=center;verticalAlign=middle;whiteSpace=wrap;rounded=0;" parent="WIyWlLk6GJQsqaUBKTNV-1" vertex="1">
          <mxGeometry x="300" y="740" width="60" height="30" as="geometry" />
        </mxCell>
        <mxCell id="cy5RryEcgWnBEIwlhZzS-49" value="NO" style="text;html=1;align=center;verticalAlign=middle;whiteSpace=wrap;rounded=0;" parent="WIyWlLk6GJQsqaUBKTNV-1" vertex="1">
          <mxGeometry x="40" y="500" width="60" height="30" as="geometry" />
        </mxCell>
        <mxCell id="cy5RryEcgWnBEIwlhZzS-50" value="YES" style="text;html=1;align=center;verticalAlign=middle;whiteSpace=wrap;rounded=0;" parent="WIyWlLk6GJQsqaUBKTNV-1" vertex="1">
          <mxGeometry x="414" y="340" width="60" height="30" as="geometry" />
        </mxCell>
        <mxCell id="cy5RryEcgWnBEIwlhZzS-51" value="NO" style="text;html=1;align=center;verticalAlign=middle;whiteSpace=wrap;rounded=0;" parent="WIyWlLk6GJQsqaUBKTNV-1" vertex="1">
          <mxGeometry x="300" y="390" width="60" height="30" as="geometry" />
        </mxCell>
        <mxCell id="Cr9_8VPBfHI4F4RnHkAP-1" style="edgeStyle=orthogonalEdgeStyle;rounded=0;orthogonalLoop=1;jettySize=auto;html=1;entryX=0.5;entryY=0;entryDx=0;entryDy=0;" parent="WIyWlLk6GJQsqaUBKTNV-1" source="Cr9_8VPBfHI4F4RnHkAP-0" target="cy5RryEcgWnBEIwlhZzS-1" edge="1">
          <mxGeometry relative="1" as="geometry" />
        </mxCell>
        <mxCell id="Cr9_8VPBfHI4F4RnHkAP-0" value="시작" style="ellipse;whiteSpace=wrap;html=1;" parent="WIyWlLk6GJQsqaUBKTNV-1" vertex="1">
          <mxGeometry x="240" y="10" width="120" height="60" as="geometry" />
        </mxCell>
        <mxCell id="zWLNQniWtnpa3IEKKXRj-2" style="edgeStyle=orthogonalEdgeStyle;rounded=0;orthogonalLoop=1;jettySize=auto;html=1;entryX=0.5;entryY=0;entryDx=0;entryDy=0;" edge="1" parent="WIyWlLk6GJQsqaUBKTNV-1" source="zWLNQniWtnpa3IEKKXRj-0" target="cy5RryEcgWnBEIwlhZzS-37">
          <mxGeometry relative="1" as="geometry" />
        </mxCell>
        <mxCell id="zWLNQniWtnpa3IEKKXRj-0" value="lottoNumbers 반환" style="rounded=0;whiteSpace=wrap;html=1;" vertex="1" parent="WIyWlLk6GJQsqaUBKTNV-1">
          <mxGeometry x="210" y="870" width="180" height="60" as="geometry" />
        </mxCell>
        <mxCell id="zWLNQniWtnpa3IEKKXRj-10" value="" style="edgeStyle=orthogonalEdgeStyle;rounded=0;orthogonalLoop=1;jettySize=auto;html=1;" edge="1" parent="WIyWlLk6GJQsqaUBKTNV-1" source="zWLNQniWtnpa3IEKKXRj-3" target="zWLNQniWtnpa3IEKKXRj-9">
          <mxGeometry relative="1" as="geometry" />
        </mxCell>
        <mxCell id="zWLNQniWtnpa3IEKKXRj-3" value="repeatResult += 반환 값 + &quot;\n&quot;" style="whiteSpace=wrap;html=1;rounded=0;" vertex="1" parent="WIyWlLk6GJQsqaUBKTNV-1">
          <mxGeometry x="155" y="1320" width="290" height="60" as="geometry" />
        </mxCell>
        <mxCell id="zWLNQniWtnpa3IEKKXRj-11" style="edgeStyle=orthogonalEdgeStyle;rounded=0;orthogonalLoop=1;jettySize=auto;html=1;entryX=1;entryY=0.5;entryDx=0;entryDy=0;exitX=1;exitY=0.5;exitDx=0;exitDy=0;" edge="1" parent="WIyWlLk6GJQsqaUBKTNV-1" source="zWLNQniWtnpa3IEKKXRj-9" target="zWLNQniWtnpa3IEKKXRj-3">
          <mxGeometry relative="1" as="geometry">
            <Array as="points">
              <mxPoint x="480" y="1445" />
              <mxPoint x="480" y="1350" />
            </Array>
          </mxGeometry>
        </mxCell>
        <mxCell id="zWLNQniWtnpa3IEKKXRj-15" value="" style="edgeStyle=orthogonalEdgeStyle;rounded=0;orthogonalLoop=1;jettySize=auto;html=1;" edge="1" parent="WIyWlLk6GJQsqaUBKTNV-1" source="zWLNQniWtnpa3IEKKXRj-9" target="zWLNQniWtnpa3IEKKXRj-14">
          <mxGeometry relative="1" as="geometry" />
        </mxCell>
        <mxCell id="zWLNQniWtnpa3IEKKXRj-9" value="5회 반복했는가?" style="rhombus;whiteSpace=wrap;html=1;rounded=0;" vertex="1" parent="WIyWlLk6GJQsqaUBKTNV-1">
          <mxGeometry x="205" y="1410" width="190" height="70" as="geometry" />
        </mxCell>
        <mxCell id="zWLNQniWtnpa3IEKKXRj-21" value="" style="edgeStyle=orthogonalEdgeStyle;rounded=0;orthogonalLoop=1;jettySize=auto;html=1;" edge="1" parent="WIyWlLk6GJQsqaUBKTNV-1" source="zWLNQniWtnpa3IEKKXRj-14" target="zWLNQniWtnpa3IEKKXRj-20">
          <mxGeometry relative="1" as="geometry" />
        </mxCell>
        <mxCell id="zWLNQniWtnpa3IEKKXRj-14" value="repeatResult 출력" style="whiteSpace=wrap;html=1;rounded=0;" vertex="1" parent="WIyWlLk6GJQsqaUBKTNV-1">
          <mxGeometry x="204" y="1510" width="190" height="60" as="geometry" />
        </mxCell>
        <mxCell id="zWLNQniWtnpa3IEKKXRj-23" value="" style="edgeStyle=orthogonalEdgeStyle;rounded=0;orthogonalLoop=1;jettySize=auto;html=1;" edge="1" parent="WIyWlLk6GJQsqaUBKTNV-1" source="zWLNQniWtnpa3IEKKXRj-20" target="zWLNQniWtnpa3IEKKXRj-22">
          <mxGeometry relative="1" as="geometry" />
        </mxCell>
        <mxCell id="zWLNQniWtnpa3IEKKXRj-25" value="" style="edgeStyle=orthogonalEdgeStyle;rounded=0;orthogonalLoop=1;jettySize=auto;html=1;" edge="1" parent="WIyWlLk6GJQsqaUBKTNV-1" source="zWLNQniWtnpa3IEKKXRj-20" target="zWLNQniWtnpa3IEKKXRj-24">
          <mxGeometry relative="1" as="geometry" />
        </mxCell>
        <mxCell id="zWLNQniWtnpa3IEKKXRj-20" value="lottoNumbersByRound에 &lt;br&gt;&quot;\(round)회차&quot;를 key 값으로 하는 value가 있는가?" style="rhombus;whiteSpace=wrap;html=1;rounded=0;" vertex="1" parent="WIyWlLk6GJQsqaUBKTNV-1">
          <mxGeometry x="108.5" y="1630" width="381" height="80" as="geometry" />
        </mxCell>
        <mxCell id="zWLNQniWtnpa3IEKKXRj-30" value="" style="edgeStyle=orthogonalEdgeStyle;rounded=0;orthogonalLoop=1;jettySize=auto;html=1;" edge="1" parent="WIyWlLk6GJQsqaUBKTNV-1" source="zWLNQniWtnpa3IEKKXRj-22" target="zWLNQniWtnpa3IEKKXRj-29">
          <mxGeometry relative="1" as="geometry" />
        </mxCell>
        <mxCell id="zWLNQniWtnpa3IEKKXRj-22" value="&quot;\(round)회차의 &lt;span style=&quot;font-variant-numeric: normal; font-variant-east-asian: normal; font-variant-alternates: normal; font-kerning: auto; font-optical-sizing: auto; font-feature-settings: normal; font-variation-settings: normal; font-variant-position: normal; font-stretch: normal; line-height: normal; font-family: &amp;quot;Apple SD Gothic Neo&amp;quot;;&quot; class=&quot;s1&quot;&gt;로또&lt;/span&gt; &lt;span style=&quot;font-variant-numeric: normal; font-variant-east-asian: normal; font-variant-alternates: normal; font-kerning: auto; font-optical-sizing: auto; font-feature-settings: normal; font-variation-settings: normal; font-variant-position: normal; font-stretch: normal; line-height: normal; font-family: &amp;quot;Apple SD Gothic Neo&amp;quot;;&quot; class=&quot;s1&quot;&gt;당첨&lt;/span&gt; &lt;span style=&quot;font-variant-numeric: normal; font-variant-east-asian: normal; font-variant-alternates: normal; font-kerning: auto; font-optical-sizing: auto; font-feature-settings: normal; font-variation-settings: normal; font-variant-position: normal; font-stretch: normal; line-height: normal; font-family: &amp;quot;Apple SD Gothic Neo&amp;quot;;&quot; class=&quot;s1&quot;&gt;번호는&lt;/span&gt; &lt;br&gt;\(removeBracketFromSet(set: numbersByRound)) &lt;span style=&quot;font-variant-numeric: normal; font-variant-east-asian: normal; font-variant-alternates: normal; font-kerning: auto; font-optical-sizing: auto; font-feature-settings: normal; font-variation-settings: normal; font-variant-position: normal; font-stretch: normal; line-height: normal; font-family: &amp;quot;Apple SD Gothic Neo&amp;quot;;&quot; class=&quot;s1&quot;&gt;입니다&lt;/span&gt;.&quot; 반환" style="rounded=0;whiteSpace=wrap;html=1;" vertex="1" parent="WIyWlLk6GJQsqaUBKTNV-1">
          <mxGeometry x="-50" y="1754" width="338.5" height="66" as="geometry" />
        </mxCell>
        <mxCell id="zWLNQniWtnpa3IEKKXRj-31" style="edgeStyle=orthogonalEdgeStyle;rounded=0;orthogonalLoop=1;jettySize=auto;html=1;entryX=0.5;entryY=0;entryDx=0;entryDy=0;" edge="1" parent="WIyWlLk6GJQsqaUBKTNV-1" source="zWLNQniWtnpa3IEKKXRj-24" target="zWLNQniWtnpa3IEKKXRj-29">
          <mxGeometry relative="1" as="geometry" />
        </mxCell>
        <mxCell id="zWLNQniWtnpa3IEKKXRj-24" value="&quot;해당 회차의 로또 번호가 없습니다.&quot; 반환" style="rounded=0;whiteSpace=wrap;html=1;" vertex="1" parent="WIyWlLk6GJQsqaUBKTNV-1">
          <mxGeometry x="340" y="1754" width="245" height="66" as="geometry" />
        </mxCell>
        <mxCell id="zWLNQniWtnpa3IEKKXRj-33" value="" style="edgeStyle=orthogonalEdgeStyle;rounded=0;orthogonalLoop=1;jettySize=auto;html=1;" edge="1" parent="WIyWlLk6GJQsqaUBKTNV-1" source="zWLNQniWtnpa3IEKKXRj-29" target="zWLNQniWtnpa3IEKKXRj-32">
          <mxGeometry relative="1" as="geometry" />
        </mxCell>
        <mxCell id="zWLNQniWtnpa3IEKKXRj-29" value="반환 값 출력" style="whiteSpace=wrap;html=1;rounded=0;" vertex="1" parent="WIyWlLk6GJQsqaUBKTNV-1">
          <mxGeometry x="240" y="1890" width="120" height="60" as="geometry" />
        </mxCell>
        <mxCell id="zWLNQniWtnpa3IEKKXRj-32" value="끝" style="ellipse;whiteSpace=wrap;html=1;" vertex="1" parent="WIyWlLk6GJQsqaUBKTNV-1">
          <mxGeometry x="239" y="1990" width="120" height="60" as="geometry" />
        </mxCell>
        <mxCell id="zWLNQniWtnpa3IEKKXRj-34" value="YES" style="text;html=1;align=center;verticalAlign=middle;whiteSpace=wrap;rounded=0;" vertex="1" parent="WIyWlLk6GJQsqaUBKTNV-1">
          <mxGeometry x="299" y="1480" width="60" height="30" as="geometry" />
        </mxCell>
        <mxCell id="zWLNQniWtnpa3IEKKXRj-35" value="NO" style="text;html=1;align=center;verticalAlign=middle;whiteSpace=wrap;rounded=0;" vertex="1" parent="WIyWlLk6GJQsqaUBKTNV-1">
          <mxGeometry x="470" y="1390" width="60" height="30" as="geometry" />
        </mxCell>
        <mxCell id="zWLNQniWtnpa3IEKKXRj-36" value="NO" style="text;html=1;align=center;verticalAlign=middle;whiteSpace=wrap;rounded=0;" vertex="1" parent="WIyWlLk6GJQsqaUBKTNV-1">
          <mxGeometry x="370" y="1700" width="60" height="30" as="geometry" />
        </mxCell>
        <mxCell id="zWLNQniWtnpa3IEKKXRj-37" value="YES" style="text;html=1;align=center;verticalAlign=middle;whiteSpace=wrap;rounded=0;" vertex="1" parent="WIyWlLk6GJQsqaUBKTNV-1">
          <mxGeometry x="139.5" y="1700" width="60" height="30" as="geometry" />
        </mxCell>
      </root>
    </mxGraphModel>
  </diagram>
</mxfile>
